<svg xmlns="http://www.w3.org/2000/svg" width="35.817" height="30.746" viewBox="0 0 35.817 30.746"><defs><style>.a{fill:#c3cbea;}</style></defs><g transform="translate(-45.661 -195.944)"><path class="a" d="M78.528,203.6H77.319l-18.209,0c-.273,0-.623.1-.8-.033-.4-.293-.955-.675-1-1.073s.386-.917.72-1.282c.155-.169.573-.128.871-.128q10.334-.009,20.668,0c1.812,0,2.208.544,1.728,2.288q-1.783,6.48-3.545,12.965c-.32,1.171-.554,1.362-1.784,1.363q-8.513.007-17.026,0c-1.262,0-1.487-.194-1.819-1.436q-2.271-8.511-4.548-17.02c-.062-.233-.138-.463-.227-.756q-2.459,0-4.91,0c-1.127,0-1.757-.444-1.772-1.238-.015-.832.632-1.3,1.82-1.3q2.732,0,5.463,0c1.105,0,1.442.261,1.729,1.333,1.5,5.615,3.013,11.227,4.474,16.853.209.806.49,1.1,1.381,1.092,4.673-.056,9.347-.036,14.021-.011.639,0,.953-.139,1.129-.816.877-3.369,1.816-6.721,2.729-10.081C78.461,204.118,78.477,203.907,78.528,203.6Z" transform="translate(0)"/><path class="a" d="M179.5,326.534a3.957,3.957,0,0,1,3.851-3.808,4.066,4.066,0,0,1,3.794,3.809,4.127,4.127,0,0,1-3.881,3.84A4.068,4.068,0,0,1,179.5,326.534Zm5.106.04a1.149,1.149,0,0,0-1.238-1.325,1.134,1.134,0,0,0-1.35,1.2,1.3,1.3,0,1,0,2.587.122Z" transform="translate(-109.454 -103.686)"/><path class="a" d="M116.747,326.579a3.806,3.806,0,1,1-7.611-.1,3.806,3.806,0,1,1,7.611.1Zm-3.8-1.333a1.177,1.177,0,0,0-1.318,1.262,1.311,1.311,0,1,0,2.621,0A1.152,1.152,0,0,0,112.951,325.246Z" transform="translate(-51.911 -103.684)"/></g></svg>